<svg version="1" xmlns="http://www.w3.org/2000/svg" width="1365.333" height="1365.333" viewBox="0 0 1024.000000 1024.000000"><path d="M490.5 153.1c-159 8.6-295 121.5-331.4 274.9-10.8 45.6-12.4 96.4-4.5 142.5 19 110.8 91.3 207.3 193.6 258.6 102 51.1 224.6 51.1 326.6 0 95.5-47.9 164.8-134.7 189.1-237.1 10.8-45.6 12.4-96.4 4.5-142.5-19-110.8-91.3-207.3-193.6-258.6-44.9-22.5-92.6-35-144.6-37.9-19.3-1.1-19.3-1.1-39.7.1zm61.8 88.3c33 5.4 64.3 16 90.9 30.7 45.1 24.9 82.8 62.6 107.7 107.7 15.2 27.5 26.2 60.6 31.3 94.7 1.8 12.2 1.8 59.8 0 72-5.1 34.1-16.1 67.2-31.3 94.7-24.9 45.1-62.6 82.8-107.7 107.7-27.5 15.2-60.6 26.2-94.7 31.3-12.2 1.8-59.8 1.8-72 0-34.1-5.1-67.2-16.1-94.7-31.3-45.1-24.9-82.8-62.6-107.7-107.7-15.2-27.5-26.2-60.6-31.3-94.7-1.8-12.2-1.8-59.8 0-72 5.1-34.1 16.1-67.2 31.3-94.7 24.9-45.1 62.6-82.8 107.7-107.7 27.8-15.4 64.2-27.3 94.7-31 5-.6 10.1-1.3 11.5-1.5 6.4-1.1 55 .3 64.3 1.8z"/><path d="M494 317.5c-.8.2-5.5.9-10.5 1.5-20.4 2.8-46.7 12.1-65.5 23.2-25.6 15.1-47.7 36.1-64 60.8-36.2 55.2-40.9 126.8-12 186.5 10.5 21.8 22.4 38 40.7 55.5 30.3 29 66.2 45.8 108.6 51.1 12.3 1.5 42 .7 53.5-1.5 12.5-2.3 26.5-6.2 36.6-10.2 94.1-37.2 142.7-141.5 110.8-237.9-4.7-14.4-16.4-37.6-24.9-49.4-31.3-43.6-76.5-71.2-128.4-78.6-9-1.3-40-1.9-44.9-1zm46.1 79.8c44.7 11.8 76.6 45.5 85.9 90.7 3 14.6 2.5 36.9-1.3 51.1-11.8 44.7-45.5 76.6-90.7 85.9-14.6 3-36.9 2.5-51.1-1.3-44.7-11.8-76.6-45.5-85.9-90.7-3-14.6-2.5-36.9 1.3-51.1 11.6-44.2 45.1-76.2 89.8-85.8 13.7-3 38.3-2.4 52 1.2z"/><path d="M461 510.5V539h10.9l.3-13.3.3-13.2h23l.3 13.2.3 13.3H507v-57h-10.9l-.3 10.7-.3 10.8-11.7.3-11.8.3V482h-11v28.5zM520.1 503.2c.1 21.3.5 24.8 3.9 29.5 6.4 8.9 28.5 9.8 36.2 1.5 5.1-5.4 5.3-6.4 5.6-30l.4-22.2H554v43.2l-2.9 2.9c-2.4 2.3-3.8 2.9-7.5 2.9-2.5 0-5.6-.5-6.9-1.1-4.6-2.1-5.1-4.9-5.5-27.2l-.3-20.7H520l.1 21.2z"/></svg>